<?xml version="1.0" encoding="utf-8"?>
<!-- Generator: Adobe Illustrator 23.0.6, SVG Export Plug-In . SVG Version: 6.00 Build 0)  -->
<svg version="1.1" id="Capa_1" xmlns="http://www.w3.org/2000/svg" xmlns:xlink="http://www.w3.org/1999/xlink" x="0px" y="0px"
	 viewBox="0 0 226.77 226.77" style="enable-background:new 0 0 226.77 226.77;" xml:space="preserve">
<style type="text/css">
	.st0{stroke:#000000;stroke-width:3;stroke-miterlimit:10;}
</style>
<g>
	<path class="st0" d="M47.44,78.79c7.73,2.42,24.64,6.43,43.21-0.06c6.2-2.17,16.04-5.74,23.25-15.56c2-2.73,9.75-13.22,7.03-25.6
		c-1.61-7.34-7.18-16.69-14.06-17.07c-0.48-0.03-2.42-0.08-4.63,1.08c-9.42,4.96-8.52,24.19-7.88,37.93c0.23,4.94,0.68,8.93,1,11.34
		c0.9,2.27,1.8,4.55,2.7,6.82c0.15,5.62,0.5,10.15,0.77,13.11c0.7,7.51,2.07,15.63,4.75,31.58c0.35,2.07,0.62,3.63,0.78,4.56
		c6.3,36.76,10.07,47.46,3.51,59.74c-0.67,1.25-6.69,12.16-19.08,17.07c-22.06,8.74-53.47-5.83-64.76-31.12
		c-11.33-25.38,1-53.25,17.07-67.27c13.35-11.65,30.51-13.84,37.9-14.85c12.65-1.72,21.11,0.17,23.23,0.68
		c8.49,2.03,14.84,5.65,18.77,8.33c-6.29-2.61-16.19-5.77-28.58-5.92c-2-0.02-11.2-0.05-22.82,3.21c-7.82,2.2-17.44,4.9-26.68,13.02
		c-9.17,8.05-13.11,17.17-13.98,19.29c-5.5,13.31-6,31.03,3.05,46.39c1.07,1.82,11.18,18.37,31.29,23.57
		c5.62,1.45,16.03,4.14,26.14-1.29c8.78-4.72,12.46-12.94,13.71-15.86c2.99-6.96,2.87-12.82,0.45-32.9
		c-1.78-14.76-3.38-23.81-5.02-37.65c-0.26-2.23-0.45-4.27-0.85-8.33c-1.28-12.73-2.22-23.1-2.84-30.19
		c0.95-0.11,1.9-0.22,2.85-0.32c-0.54-4.62-4.04-35.87,3.79-44.46c0.96-1.05,3.21-3.51,6.17-3.43c3.72,0.1,6.12,4.07,7.32,5.91
		c3.54,5.41,3.11,11.21,2.89,13.8c0,0-0.82,9.4-8.35,18.39C99.76,74.46,76.14,81.02,47.44,78.79z"/>
	<g>
		<path d="M176.37,184.91c-4.25,0.17-7.85-0.74-9.6-1.2c-3.73-0.97-6.73-2.35-8.88-3.52c-0.02,0.01-0.04,0.02-0.06,0.03
			c-2.96,1.24-29.49,11.7-50.47-3.39c-11.53-8.29-19.43-22.14-22.26-38.98c-3.01-17.92,0.38-36.62,9.06-50.02
			c14.73-22.72,38.69-23.97,42.88-24.23c34.18-2.11,55.35,30.46,56.88,32.9c-3.52-4-25.64-28.37-56.42-24.81
			c-6.6,0.76-25.7,2.72-37.49,20.9c-7.54,11.63-10.46,27.99-7.81,43.76c2.46,14.63,9.22,26.58,19.06,33.65
			c13.87,9.98,30.94,6.79,39.24,4.3c-6.31-6.1-9.82-12.45-10.11-12.98c-8.69-16.02-12.65-45.61,2.94-57.21
			c8.96-6.68,22.95-5.43,32.52,2.89c14.08,12.23,12.2,34.9,7.5,47.16c-3.46,9.03-9.58,15.32-12.92,18.27
			c-0.12,0.1-1.69,1.48-4.22,3.2c1.95,0.77,4.77,1.67,8.24,2.04c1.53,0.16,5.83,0.5,12.42-1.2c8.43-2.18,15.35-6.36,20.25-10.02
			c-5.98,7.39-12.08,11.45-15.98,13.61C187.27,182.18,182.67,184.66,176.37,184.91z M156.83,107.9c-3.39,0-6.71,0.89-9.48,2.96
			c-11.24,8.37-7.95,32.97-0.76,46.24c0.07,0.13,4.4,7.96,12,13.93c4.34-2.35,7.33-4.96,7.36-4.99c2.8-2.47,7.93-7.72,10.75-15.09
			c3.66-9.56,5.47-28.2-5.28-37.54C167.61,110.1,162.14,107.9,156.83,107.9z"/>
	</g>
</g>
</svg>
